<svg version="1.1" id="Layer_1" xmlns="http://www.w3.org/2000/svg" xmlns:xlink="http://www.w3.org/1999/xlink" x="0px" y="0px"
	 width="100%" viewBox="0 0 2560 1440" enable-background="new 0 0 2560 1440" xml:space="preserve">
<path fill="#FFFFFF" opacity="1.000000" stroke="none" 
	d="
M2423.000000,1441.000000 
	C1615.333374,1441.000000 808.166687,1441.000000 1.000000,1441.000000 
	C1.000000,961.000000 1.000000,481.000000 1.000000,1.000000 
	C854.333313,1.000000 1707.666626,1.000000 2561.000000,1.000000 
	C2561.000000,481.000000 2561.000000,961.000000 2561.000000,1441.000000 
	C2515.166748,1441.000000 2469.333252,1441.000000 2423.000000,1441.000000 
M40.015076,685.859863 
	C37.285542,682.906616 34.884037,677.904785 31.761681,677.404785 
	C24.052540,676.170288 16.012863,677.000061 8.216625,677.000061 
	C8.216625,692.378113 8.216625,706.981750 8.216625,721.611938 
	C10.480661,721.611938 12.497930,721.611938 14.914211,721.611938 
	C14.914211,717.290955 14.914211,713.363403 14.914211,709.015991 
	C20.108887,709.015991 24.902756,709.059326 29.694887,708.987122 
	C30.975746,708.967834 32.696426,709.051270 33.455685,708.309875 
	C37.770390,704.096191 41.838264,699.712280 40.087788,692.764282 
	C39.614525,690.885742 40.015991,688.786926 40.015076,685.859863 
M78.776649,685.902161 
	C78.715347,685.246094 78.907974,684.247620 78.554543,683.985474 
	C73.550575,680.274536 69.268791,674.909058 61.757816,676.909851 
	C59.896034,677.405823 57.789459,676.961426 55.795967,676.989197 
	C52.663498,677.032898 46.292389,683.159180 46.241108,686.284790 
	C46.167519,690.769775 46.190586,695.257263 46.236378,699.743042 
	C46.257809,701.842346 52.389912,708.948730 54.328663,708.978821 
	C60.098145,709.068176 65.869896,709.010803 71.730194,709.010803 
	C71.730194,706.783142 71.730194,705.061157 71.730194,703.034790 
	C66.511917,703.034790 61.569023,703.034790 57.083427,703.034790 
	C55.430408,700.608276 54.121109,698.686279 52.152767,695.796875 
	C61.779518,695.796875 70.154099,695.796875 78.778137,695.796875 
	C78.778137,692.418640 78.778137,689.611511 78.776649,685.902161 
M249.651184,676.983948 
	C248.198669,677.063843 246.746140,677.143677 245.302460,677.223022 
	C245.302460,679.266235 245.302460,680.991272 245.302460,683.016174 
	C249.421265,683.016174 253.229172,682.997192 257.036804,683.022156 
	C260.070190,683.042053 263.356079,686.483337 263.462341,689.983887 
	C259.641907,689.983887 255.799561,690.274597 252.019699,689.912659 
	C246.912659,689.423706 243.980774,692.273926 240.410614,695.298584 
	C237.854660,697.463989 237.512314,700.114014 238.489853,701.444092 
	C240.660858,704.398132 243.722656,708.250671 246.827057,708.660034 
	C254.601471,709.685242 262.601624,708.998413 270.775177,708.998413 
	C270.775177,700.752319 270.788696,693.275818 270.755615,685.799500 
	C270.752075,684.994446 270.739380,683.701721 270.289337,683.461121 
	C265.286865,680.786682 261.708771,674.665833 254.598816,676.929443 
	C253.388947,677.314636 251.951172,676.983948 249.651184,676.983948 
M401.796204,676.984253 
	C396.677277,676.520447 398.520599,679.970520 398.357849,682.871948 
	C403.627106,682.871948 408.570587,682.871948 413.094147,682.871948 
	C414.745850,685.350525 416.046722,687.302612 417.833496,689.983887 
	C413.102722,689.983887 409.438934,690.209717 405.814606,689.927856 
	C401.084961,689.559998 397.171356,690.319397 394.916382,695.105469 
	C394.218292,696.587219 392.519867,697.685242 392.099884,699.188171 
	C391.567657,701.092590 398.045197,708.895691 400.182770,708.937927 
	C408.086548,709.094238 415.995239,709.000061 424.015411,709.000061 
	C424.015411,700.896179 424.029449,693.572876 423.998566,686.249817 
	C423.994446,685.273376 424.107178,683.729309 423.582214,683.411194 
	C419.075195,680.680237 415.977936,674.901978 409.195679,676.893860 
	C407.203094,677.479065 404.893188,676.983948 401.796204,676.984253 
M215.457657,618.971191 
	C221.339813,618.973633 224.036743,620.854614 225.030182,626.028809 
	C221.152893,626.028809 217.310226,626.391724 213.569473,625.929565 
	C209.606125,625.439880 206.494049,626.817322 203.880096,629.313477 
	C202.256317,630.864136 200.816284,632.957397 200.160965,635.075378 
	C199.479050,637.279358 206.220505,644.874023 208.703659,644.916443 
	C216.301727,645.046326 223.903427,644.963623 231.970947,644.963623 
	C231.970947,637.244385 231.986053,629.977173 231.962692,622.710083 
	C231.954575,620.186523 225.564545,613.123169 223.043396,613.067871 
	C217.610870,612.948608 212.173904,613.031311 206.688904,613.031311 
	C206.688904,615.303467 206.688904,617.009583 206.688904,618.971191 
	C209.539917,618.971191 212.019989,618.971191 215.457657,618.971191 
M84.028854,626.582275 
	C84.028854,630.548950 84.028854,634.515625 84.028854,638.824280 
	C89.466248,638.106323 89.611595,645.495056 94.999680,645.055603 
	C99.896225,644.656311 104.851006,644.971069 109.755707,644.971069 
	C109.755707,642.716797 109.755707,641.108887 109.755707,639.166992 
	C104.622597,639.166992 99.682961,639.166992 95.042824,639.166992 
	C93.406273,636.748230 92.059555,634.757874 90.126808,631.901367 
	C99.650108,631.901367 108.045914,631.901367 116.855003,631.901367 
	C116.855003,629.277466 116.939331,627.150269 116.830078,625.033020 
	C116.730865,623.110291 117.148232,620.328308 116.077370,619.433472 
	C111.588257,615.682190 107.233261,611.637695 100.263397,612.851318 
	C96.051704,613.584717 91.569038,612.515320 88.421768,616.596619 
	C87.398979,617.923035 85.940170,618.913208 84.028862,620.649292 
	C84.028862,621.659119 84.028862,623.638062 84.028854,626.582275 
M72.028854,635.472107 
	C72.028854,638.576416 72.028854,641.680725 72.028854,644.595825 
	C74.597900,644.595825 76.498360,644.595825 78.691132,644.595825 
	C78.691132,638.587036 78.237968,632.899414 78.824020,627.320923 
	C79.364075,622.180237 76.963043,619.401428 73.692986,615.947021 
	C70.729248,612.816162 67.791992,613.092407 64.465805,613.041931 
	C60.711037,612.984924 56.954735,613.028809 52.876419,613.028809 
	C52.876419,608.383240 52.876419,604.436279 52.876419,600.266968 
	C50.633850,600.266968 48.729870,600.266968 46.616924,600.266968 
	C46.616924,615.213135 46.616924,629.936768 46.616924,644.662842 
	C48.836800,644.662842 50.745193,644.662842 53.167782,644.662842 
	C53.167782,635.972290 53.167782,627.578857 53.167782,618.971191 
	C57.169182,618.971191 60.650818,618.964539 64.132416,618.972839 
	C68.991699,618.984436 71.979538,622.017883 72.024796,627.000793 
	C72.047470,629.497803 72.028824,631.995300 72.028854,635.472107 
M40.016060,750.535156 
	C40.016060,747.428467 40.016060,744.321838 40.016060,741.282471 
	C37.481041,741.282471 35.564850,741.282471 33.082745,741.282471 
	C33.082745,748.951782 33.082745,756.339478 33.082745,764.016846 
	C30.914907,763.906677 29.335875,763.826416 27.365824,763.726318 
	C27.365824,760.193726 27.365824,757.087524 27.365824,753.868896 
	C24.895739,753.868896 22.857445,753.868896 20.395237,753.868896 
	C20.395237,757.330444 20.395237,760.421448 20.395237,763.724609 
	C18.389479,763.724609 16.817759,763.724609 14.698081,763.724609 
	C14.698081,756.088684 14.698081,748.686340 14.698081,741.238831 
	C12.227069,741.238831 10.306623,741.238831 7.983940,741.238831 
	C7.983940,747.440918 7.962794,753.398865 7.992397,759.356506 
	C8.008451,762.587524 7.958957,765.313538 10.823068,768.248047 
	C15.785869,773.332947 15.181522,773.651978 21.749531,770.369080 
	C23.009216,769.739380 25.288509,771.204529 27.113451,771.635498 
	C29.009466,772.083252 32.174774,773.339355 32.627125,772.704468 
	C35.374054,768.848877 41.398495,766.984924 40.112377,760.488953 
	C39.541668,757.606323 40.016060,754.516785 40.016060,750.535156 
M358.677765,702.983948 
	C356.928070,702.983948 355.178406,702.983948 353.173157,702.983948 
	C353.283325,705.375488 353.357056,706.975647 353.451050,709.016113 
	C360.219727,709.016113 366.667725,709.063538 373.114410,708.992432 
	C375.649719,708.964539 378.361115,709.972290 379.853119,706.179688 
	C380.565521,704.368774 383.539673,703.447632 385.655579,702.010559 
	C385.655579,700.390747 385.655579,698.589355 385.655579,696.788025 
	C380.106720,688.393066 371.467194,689.673035 363.357117,690.016541 
	C363.357117,687.364685 363.357117,685.316956 363.357117,682.833008 
	C370.933167,682.833008 378.175812,682.833008 385.396118,682.833008 
	C385.396118,680.670166 385.396118,678.958130 385.396118,676.536377 
	C375.932007,678.777222 366.256256,673.826904 357.519470,680.026794 
	C354.619476,682.084656 351.570435,687.619202 353.695770,689.334045 
	C357.472626,692.381470 360.504944,697.128540 366.630981,696.091980 
	C369.301147,695.640259 372.111359,696.016113 374.732239,696.016113 
	C374.732239,698.705566 374.732239,700.642029 374.732239,702.983887 
	C369.538940,702.983887 364.585022,702.983887 358.677765,702.983948 
M149.227600,742.507324 
	C145.413284,745.965759 141.598969,749.424194 136.982452,753.610046 
	C136.982452,744.608704 136.982452,736.442322 136.982452,728.240234 
	C134.382401,728.240234 132.459976,728.240234 130.365921,728.240234 
	C130.365921,743.213013 130.365921,757.929993 130.365921,772.785400 
	C132.575287,772.785400 134.497574,772.785400 137.133774,772.785400 
	C137.133774,768.778015 137.133774,764.965271 137.133774,761.865967 
	C144.736526,763.478882 146.272461,774.393250 155.802612,772.811218 
	C156.046036,768.177185 151.186218,762.077148 146.207001,760.277039 
	C146.207001,757.990417 146.207001,755.698425 146.207001,753.466736 
	C151.631821,751.815979 156.151947,745.910767 155.496658,740.814819 
	C153.479874,741.104553 151.446320,741.396606 149.227600,742.507324 
M192.447830,766.969666 
	C194.539795,763.734192 193.343124,762.452087 190.888565,759.192932 
	C186.605362,753.505676 181.880890,754.088745 176.565430,753.989075 
	C174.797470,753.955933 173.028381,753.983887 171.393768,753.983887 
	C171.393768,751.302917 171.393768,749.253845 171.393768,746.764648 
	C179.011276,746.764648 186.256683,746.764648 193.803345,746.764648 
	C193.696381,744.580200 193.612411,742.865723 193.490341,740.373108 
	C184.041626,743.131226 174.467239,737.451172 165.858185,743.967712 
	C162.809906,746.275146 159.526672,751.594482 161.754898,753.472168 
	C165.624557,756.733215 168.951782,761.413025 175.283417,760.095093 
	C177.629608,759.606689 180.162720,760.016113 182.671677,760.016113 
	C182.671677,762.590454 182.671677,764.638245 182.671677,767.122192 
	C175.454453,767.122192 168.541565,767.122192 161.583313,767.122192 
	C161.583313,769.288574 161.583313,771.001343 161.583313,773.016113 
	C166.575790,773.016113 171.256790,772.627747 175.846436,773.109619 
	C182.296875,773.786743 187.730759,772.614197 192.447830,766.969666 
M130.060501,677.042236 
	C128.949112,678.219727 127.465813,679.221863 126.809486,680.613953 
	C125.693291,682.981323 121.803215,683.701843 123.009872,687.493652 
	C123.634651,689.456909 130.298553,695.990662 132.471161,696.006775 
	C136.591415,696.037415 140.712067,696.015686 144.869171,696.015686 
	C144.869171,698.596313 144.869171,700.639160 144.869171,703.172668 
	C137.448944,703.172668 130.368286,703.172668 123.305061,703.172668 
	C123.305061,705.291138 123.305061,706.897278 123.305061,709.016113 
	C129.800201,709.016113 136.137680,708.521729 142.352325,709.182434 
	C146.819748,709.657288 149.280487,707.336243 151.874039,704.786072 
	C153.162323,703.519348 154.582352,701.887573 154.889664,700.226135 
	C155.527649,696.777283 149.063354,690.056885 145.424637,689.999390 
	C141.333832,689.934692 137.241211,689.984497 133.258270,689.984497 
	C133.258270,687.322388 133.258270,685.380310 133.258270,682.949280 
	C140.562134,682.949280 147.636658,682.949280 154.691833,682.949280 
	C154.691833,680.724487 154.691833,678.999756 154.691833,676.991638 
	C146.570724,676.991638 138.766006,676.991638 130.060501,677.042236 
M193.703613,684.187927 
	C187.767700,676.491760 179.505035,676.171570 170.881027,676.976440 
	C170.220856,677.037964 169.547394,676.953003 168.886124,677.008179 
	C168.401291,677.048706 167.648666,677.051636 167.488632,677.336792 
	C165.074036,681.640381 159.378235,684.234619 161.097733,690.747314 
	C161.836990,693.547424 161.188293,696.705688 161.241669,699.699890 
	C161.258987,700.672607 161.141998,702.083679 161.701767,702.540833 
	C165.682571,705.792358 168.748627,710.789490 175.324646,709.126892 
	C177.983536,708.454651 180.954834,709.048828 183.782669,708.997131 
	C184.758331,708.979248 186.152771,709.117859 186.637238,708.560364 
	C190.741608,703.837830 196.070419,699.670044 193.872574,692.031311 
	C193.253250,689.878845 193.771194,687.399231 193.703613,684.187927 
M46.221500,755.560059 
	C46.221504,757.891235 46.429050,760.244812 46.180141,762.549133 
	C45.584637,768.062073 51.476139,769.076050 53.171097,772.959961 
	C59.969261,771.696533 67.402260,775.925110 73.762436,769.984314 
	C77.233940,766.741760 79.711372,763.787720 78.864731,758.653198 
	C78.092674,753.971008 80.480797,748.675720 74.992615,745.108582 
	C71.982407,743.151978 69.931313,740.014954 65.473328,740.864563 
	C62.259781,741.477051 58.835358,740.963440 55.505447,740.997070 
	C54.521725,741.007019 52.965313,740.810974 52.647255,741.319641 
	C50.030899,745.503418 44.150608,748.172058 46.221500,755.560059 
M24.474321,613.028809 
	C21.173780,613.173279 16.674595,612.022278 14.824442,613.734253 
	C11.074857,617.203674 6.070211,620.828491 7.920376,627.640015 
	C8.594348,630.121277 7.999617,632.939575 8.044882,635.603149 
	C8.061549,636.583923 7.911421,638.152405 8.420822,638.448364 
	C12.819948,641.003662 15.557192,646.862427 22.223801,645.078796 
	C24.710136,644.413574 27.524240,645.005188 30.187487,644.952820 
	C31.158194,644.933777 32.590839,645.071167 33.019104,644.520264 
	C36.247211,640.367981 41.990379,637.572571 40.087616,630.590149 
	C39.369511,627.954956 40.010021,624.959412 39.948452,622.129944 
	C39.927509,621.167236 39.963219,619.612793 39.445602,619.343811 
	C34.900349,616.981995 32.020786,610.817200 24.474321,613.028809 
M507.080017,696.369751 
	C507.245789,698.487793 506.584503,701.585449 507.725281,702.548584 
	C511.923706,706.093079 515.716309,711.048706 522.584412,709.110901 
	C524.740723,708.502563 527.214417,709.053345 529.540955,708.997192 
	C530.515625,708.973694 531.961609,709.113892 532.381714,708.561951 
	C535.555420,704.391541 540.941711,701.364685 539.130981,694.569641 
	C538.427673,691.930298 539.052490,688.946106 538.994995,686.120544 
	C538.975281,685.152832 539.074829,683.728333 538.515564,683.297974 
	C534.160950,679.946777 530.519287,675.043640 523.735779,676.883850 
	C521.412476,677.514160 518.772644,676.927917 516.281433,677.014465 
	C515.331360,677.047363 514.033447,677.085266 513.506287,677.671509 
	C509.626221,681.986755 505.031433,686.063660 507.049591,692.923340 
	C507.274719,693.688538 507.080017,694.577148 507.080017,696.369751 
M570.933899,688.012085 
	C570.933899,694.945679 570.933899,701.879211 570.933899,708.701721 
	C573.542603,708.701721 575.459167,708.701721 577.778564,708.701721 
	C577.778564,702.600525 577.232544,696.735657 577.941223,691.026550 
	C578.574707,685.923401 576.358032,682.925537 572.855347,680.127319 
	C571.631104,679.149231 570.531982,677.189514 569.325378,677.148132 
	C561.415222,676.876953 553.491333,677.008484 545.621094,677.008484 
	C545.621094,688.048340 545.621094,698.414856 545.621094,708.683960 
	C547.931335,708.683960 549.837097,708.683960 552.244751,708.683960 
	C552.244751,699.967712 552.244751,691.572754 552.244751,683.110229 
	C557.565674,683.110229 562.375366,683.110229 566.344177,683.110229 
	C568.109619,684.778625 569.372559,685.972107 570.933899,688.012085 
M167.971161,639.359131 
	C167.971161,632.620422 167.971161,625.881714 167.971161,619.296387 
	C169.050583,619.109924 169.373459,619.007568 169.696976,619.005432 
	C172.855759,618.984436 176.014679,618.968140 179.173523,618.973999 
	C184.056732,618.983032 186.997559,621.978821 187.022018,627.023560 
	C187.050766,632.951294 187.028748,638.879333 187.028748,645.025330 
	C189.603302,644.910706 191.504318,644.826050 193.691132,644.728699 
	C193.691132,638.585144 193.230362,632.902588 193.826126,627.333130 
	C194.376038,622.192322 192.618439,618.805786 188.527649,616.125793 
	C187.232544,615.277283 186.198120,613.219543 184.992889,613.177063 
	C177.249268,612.904236 169.491333,613.037781 161.678894,613.037781 
	C161.678894,623.995117 161.678894,634.353577 161.678894,644.809937 
	C163.838745,644.809937 165.628159,644.809937 167.727936,644.809937 
	C167.814041,643.219543 167.892578,641.768982 167.971161,639.359131 
M225.221558,704.283081 
	C225.302261,705.735718 225.382980,707.188416 225.472412,708.797913 
	C227.718231,708.797913 229.635498,708.797913 232.015961,708.797913 
	C232.015961,707.297485 232.016251,706.009216 232.015900,704.720886 
	C232.014191,698.237061 232.966690,691.545593 231.619980,685.354309 
	C230.914932,682.112915 226.473022,677.895203 223.194275,677.365662 
	C215.785233,676.168945 208.050385,676.989441 200.220825,676.989441 
	C200.220825,687.830566 200.220825,698.211487 200.220825,708.609497 
	C202.487030,708.609497 204.502090,708.609497 206.899902,708.609497 
	C206.899902,699.965332 206.899902,691.720215 206.899902,683.250549 
	C212.058426,683.250549 216.823196,683.250549 223.087997,683.250549 
	C223.789230,688.046570 224.574265,692.935791 225.185349,697.846802 
	C225.409439,699.647705 225.221573,701.499817 225.221558,704.283081 
M296.778473,687.496948 
	C296.778473,679.738403 296.778473,671.979797 296.778473,664.275757 
	C291.787994,664.275757 287.525665,664.275757 283.314911,664.275757 
	C283.314911,666.304382 283.314911,668.036072 283.314911,669.791260 
	C285.713593,669.984985 287.787903,670.152527 289.681915,670.305481 
	C289.681915,681.432983 289.681915,692.143921 289.681915,702.834717 
	C287.327881,702.954163 285.372375,703.053406 283.239655,703.161621 
	C283.239655,705.161316 283.239655,706.886414 283.239655,708.738464 
	C289.897308,708.738464 296.300720,708.738464 302.699524,708.738464 
	C302.699524,706.723328 302.699524,704.990295 302.699524,703.207764 
	C300.636353,703.023926 298.876984,702.867126 296.778381,702.680115 
	C296.778381,697.759216 296.778381,693.127441 296.778473,687.496948 
M135.575775,606.123108 
	C136.068344,616.914856 136.560913,627.706604 137.057648,638.589783 
	C134.164597,638.953796 132.256088,639.193909 130.411148,639.426086 
	C130.411148,641.336914 130.411148,642.932800 130.411148,644.643188 
	C136.900269,644.643188 143.125839,644.643188 149.440216,644.643188 
	C149.440216,642.718384 149.440216,641.123230 149.440216,639.236206 
	C147.301895,639.101013 145.375046,638.979126 142.959442,638.826355 
	C142.959442,625.903870 142.959442,613.170654 142.959442,600.410522 
	C138.401474,600.410522 134.360550,600.410522 130.095566,600.410522 
	C130.206375,602.404297 130.295258,604.003601 130.395142,605.800659 
	C132.025238,605.876709 133.329651,605.937561 135.575775,606.123108 
M456.915833,679.552734 
	C456.636322,674.549011 452.198090,678.440979 449.973511,675.913696 
	C449.973511,672.476257 449.973511,668.390625 449.973511,664.291992 
	C447.749207,664.291992 446.024323,664.291992 443.814789,664.291992 
	C443.814789,668.667236 443.814789,672.746216 443.814789,676.768127 
	C441.390503,676.971069 439.458588,677.132751 437.620117,677.286621 
	C437.620117,679.386963 437.620117,681.096008 437.620117,682.766235 
	C439.930023,682.978943 441.845856,683.155334 443.983948,683.352234 
	C443.983948,687.837097 444.072205,691.984375 443.956116,696.125854 
	C443.863159,699.441406 443.691559,702.582458 447.027283,704.757690 
	C450.035156,706.718994 452.037659,711.170410 457.806000,707.604736 
	C456.745056,706.026489 455.715790,704.394958 454.584625,702.837402 
	C453.105377,700.800598 450.575531,698.977112 450.225677,696.785950 
	C449.531555,692.438721 450.020508,687.902588 450.020508,684.035461 
	C452.200317,681.557861 456.641022,685.453979 456.915833,679.552734 
M111.485413,676.983887 
	C105.446289,675.088074 102.802582,680.799988 98.426987,683.656982 
	C98.089439,680.904785 97.856880,679.008667 97.637085,677.216553 
	C95.503044,677.216553 93.723152,677.216553 91.777138,677.216553 
	C91.777138,687.861511 91.777138,698.273987 91.777138,708.679077 
	C93.960869,708.679077 95.855774,708.679077 98.207092,708.679077 
	C98.207092,702.270386 98.207092,696.186890 98.207092,691.820312 
	C101.506973,689.692871 104.184395,688.690063 105.775208,686.781494 
	C108.569321,683.429260 111.842682,682.439636 115.898026,682.900696 
	C116.151108,682.929382 116.444855,682.600342 116.863098,682.352905 
	C116.863098,680.812012 116.863098,679.195496 116.863098,677.237976 
	C115.314285,677.149414 113.867470,677.066711 111.485413,676.983887 
M117.012779,744.445740 
	C116.776619,743.371155 116.903450,741.845276 116.235237,741.307800 
	C114.345322,739.787598 105.923355,741.564209 103.916031,743.414856 
	C102.367577,744.842407 100.536690,745.963684 98.260170,747.642273 
	C98.085579,744.920898 97.972054,743.151306 97.851692,741.275208 
	C95.667389,741.275208 93.775696,741.275208 91.841919,741.275208 
	C91.841919,751.958496 91.841919,762.348206 91.841919,772.822632 
	C93.969673,772.822632 95.747292,772.822632 97.986565,772.822632 
	C97.986565,766.559082 97.986565,760.467651 97.986565,753.763916 
	C104.068352,755.191223 106.441208,751.378784 108.196213,748.013672 
	C111.508339,747.015747 114.251976,746.189087 117.012779,744.445740 
M478.707642,709.015869 
	C483.997742,709.015869 489.287872,709.015869 494.760132,709.015869 
	C494.760132,706.836243 494.760132,705.107910 494.760132,703.142578 
	C492.772461,703.024658 491.009949,702.920105 488.709991,702.783691 
	C488.709991,694.124573 488.709991,685.729248 488.709991,677.230286 
	C483.890350,677.230286 479.634705,677.230286 475.262451,677.230286 
	C475.262451,679.212280 475.262451,680.938293 475.262451,682.802307 
	C477.602173,682.967651 479.680389,683.114502 481.727783,683.259216 
	C481.727783,690.005615 481.727783,696.392517 481.727783,702.749207 
	C479.289642,702.951416 477.207550,703.124146 474.787659,703.324829 
	C475.712463,705.622620 473.031128,709.124207 478.707642,709.015869 
M340.033539,708.991638 
	C340.750122,707.209351 341.466675,705.427063 342.355865,703.215454 
	C339.173859,703.021057 337.253326,702.903687 334.875610,702.758423 
	C334.875610,694.038574 334.875610,685.651917 334.875610,677.371338 
	C330.334198,677.371338 326.289154,677.371338 322.340332,677.371338 
	C322.340332,679.373352 322.340332,680.981262 322.340332,682.766968 
	C324.297791,682.951965 326.027679,683.115479 327.631653,683.267090 
	C327.631653,690.064758 327.631653,696.448975 327.631653,702.793884 
	C325.664154,702.952881 324.052216,703.083191 322.413788,703.215637 
	C322.413788,705.265686 322.413788,706.978516 322.413788,709.013062 
	C328.199738,709.013062 333.661255,709.013062 340.033539,708.991638 
M331.500183,670.015320 
	C337.047852,670.369690 334.613525,666.763306 334.745514,664.312195 
	C332.300476,664.312195 330.253540,664.312195 326.279205,664.312195 
	C328.264435,666.935974 329.428711,668.474792 331.500183,670.015320 
M482.222870,664.793457 
	C482.222870,666.391968 482.222870,667.990417 482.222870,669.765320 
	C484.493439,669.765320 486.389679,669.765320 488.480591,669.765320 
	C488.480591,667.800598 488.480591,666.087524 488.480591,664.170288 
	C486.408142,664.170288 484.625793,664.170288 482.222870,664.793457 
z"/>
<path fill="#08A5E9" opacity="1.000000" stroke="none" 
	d="
M40.015518,686.324524 
	C40.015991,688.786926 39.614525,690.885742 40.087788,692.764282 
	C41.838264,699.712280 37.770390,704.096191 33.455685,708.309875 
	C32.696426,709.051270 30.975746,708.967834 29.694887,708.987122 
	C24.902756,709.059326 20.108887,709.015991 14.914211,709.015991 
	C14.914211,713.363403 14.914211,717.290955 14.914211,721.611938 
	C12.497930,721.611938 10.480661,721.611938 8.216625,721.611938 
	C8.216625,706.981750 8.216625,692.378113 8.216625,677.000061 
	C16.012863,677.000061 24.052540,676.170288 31.761681,677.404785 
	C34.884037,677.904785 37.285542,682.906616 40.015518,686.324524 
M14.783844,685.666626 
	C14.783844,691.272461 14.783844,696.878357 14.783844,702.728882 
	C20.000595,702.728882 24.760742,702.728882 29.228636,702.728882 
	C30.621536,700.906982 32.698563,699.378235 33.012672,697.547119 
	C33.818157,692.851685 34.088795,687.657043 29.985752,684.339905 
	C28.213200,682.906860 24.872910,683.036804 22.265995,683.120178 
	C19.767599,683.200012 17.296679,684.139160 14.783844,685.666626 
z"/>
<path fill="#08A5E9" opacity="1.000000" stroke="none" 
	d="
M78.777390,686.353271 
	C78.778137,689.611511 78.778137,692.418640 78.778137,695.796875 
	C70.154099,695.796875 61.779518,695.796875 52.152767,695.796875 
	C54.121109,698.686279 55.430408,700.608276 57.083427,703.034790 
	C61.569023,703.034790 66.511917,703.034790 71.730194,703.034790 
	C71.730194,705.061157 71.730194,706.783142 71.730194,709.010803 
	C65.869896,709.010803 60.098145,709.068176 54.328663,708.978821 
	C52.389912,708.948730 46.257809,701.842346 46.236378,699.743042 
	C46.190586,695.257263 46.167519,690.769775 46.241108,686.284790 
	C46.292389,683.159180 52.663498,677.032898 55.795967,676.989197 
	C57.789459,676.961426 59.896034,677.405823 61.757816,676.909851 
	C69.268791,674.909058 73.550575,680.274536 78.554543,683.985474 
	C78.907974,684.247620 78.715347,685.246094 78.777390,686.353271 
M62.494797,683.016113 
	C60.525673,683.016113 58.556549,683.016113 57.078796,683.016113 
	C55.427570,685.423279 54.120121,687.329224 52.430878,689.791809 
	C59.498093,689.791809 65.571892,689.791809 72.599014,689.791809 
	C70.893715,687.294189 69.575630,685.363708 67.972725,683.016113 
	C66.707123,683.016113 65.064758,683.016113 62.494797,683.016113 
z"/>
<path fill="#08A5E9" opacity="1.000000" stroke="none" 
	d="
M250.134933,676.983948 
	C251.951172,676.983948 253.388947,677.314636 254.598816,676.929443 
	C261.708771,674.665833 265.286865,680.786682 270.289337,683.461121 
	C270.739380,683.701721 270.752075,684.994446 270.755615,685.799500 
	C270.788696,693.275818 270.775177,700.752319 270.775177,708.998413 
	C262.601624,708.998413 254.601471,709.685242 246.827057,708.660034 
	C243.722656,708.250671 240.660858,704.398132 238.489853,701.444092 
	C237.512314,700.114014 237.854660,697.463989 240.410614,695.298584 
	C243.980774,692.273926 246.912659,689.423706 252.019699,689.912659 
	C255.799561,690.274597 259.641907,689.983887 263.462341,689.983887 
	C263.356079,686.483337 260.070190,683.042053 257.036804,683.022156 
	C253.229172,682.997192 249.421265,683.016174 245.302460,683.016174 
	C245.302460,680.991272 245.302460,679.266235 245.302460,677.223022 
	C246.746140,677.143677 248.198669,677.063843 250.134933,676.983948 
M250.004791,696.043457 
	C249.317139,698.175049 248.629486,700.306641 247.871017,702.657715 
	C254.026291,702.657715 258.902069,702.657715 263.611694,702.657715 
	C263.611694,700.286987 263.611694,698.249329 263.611694,696.019287 
	C259.130768,696.019287 255.019714,696.019287 250.004791,696.043457 
z"/>
<path fill="#08A5E9" opacity="1.000000" stroke="none" 
	d="
M402.262451,676.984131 
	C404.893188,676.983948 407.203094,677.479065 409.195679,676.893860 
	C415.977936,674.901978 419.075195,680.680237 423.582214,683.411194 
	C424.107178,683.729309 423.994446,685.273376 423.998566,686.249817 
	C424.029449,693.572876 424.015411,700.896179 424.015411,709.000061 
	C415.995239,709.000061 408.086548,709.094238 400.182770,708.937927 
	C398.045197,708.895691 391.567657,701.092590 392.099884,699.188171 
	C392.519867,697.685242 394.218292,696.587219 394.916382,695.105469 
	C397.171356,690.319397 401.084961,689.559998 405.814606,689.927856 
	C409.438934,690.209717 413.102722,689.983887 417.833496,689.983887 
	C416.046722,687.302612 414.745850,685.350525 413.094147,682.871948 
	C408.570587,682.871948 403.627106,682.871948 398.357849,682.871948 
	C398.520599,679.970520 396.677277,676.520447 402.262451,676.984131 
M403.779602,696.031250 
	C402.974762,698.103455 402.169952,700.175659 401.169952,702.750305 
	C407.232513,702.750305 411.983215,702.750305 416.916138,702.750305 
	C416.916138,700.470947 416.916138,698.431458 416.916138,696.018005 
	C412.658539,696.018005 408.693390,696.018005 403.779602,696.031250 
z"/>
<path fill="#08A5E9" opacity="1.000000" stroke="none" 
	d="
M214.978851,618.971191 
	C212.019989,618.971191 209.539917,618.971191 206.688904,618.971191 
	C206.688904,617.009583 206.688904,615.303467 206.688904,613.031311 
	C212.173904,613.031311 217.610870,612.948608 223.043396,613.067871 
	C225.564545,613.123169 231.954575,620.186523 231.962692,622.710083 
	C231.986053,629.977173 231.970947,637.244385 231.970947,644.963623 
	C223.903427,644.963623 216.301727,645.046326 208.703659,644.916443 
	C206.220505,644.874023 199.479050,637.279358 200.160965,635.075378 
	C200.816284,632.957397 202.256317,630.864136 203.880096,629.313477 
	C206.494049,626.817322 209.606125,625.439880 213.569473,625.929565 
	C217.310226,626.391724 221.152893,626.028809 225.030182,626.028809 
	C224.036743,620.854614 221.339813,618.973633 214.978851,618.971191 
M211.739853,639.011108 
	C216.165054,639.011108 220.590240,639.011108 224.924515,639.011108 
	C224.924515,636.352051 224.924515,634.308472 224.924515,632.219360 
	C219.797760,632.219360 215.055588,632.219360 209.564377,632.219360 
	C210.014923,634.663879 210.406311,636.787415 211.739853,639.011108 
z"/>
<path fill="#08A5E9" opacity="1.000000" stroke="none" 
	d="
M84.028854,626.099670 
	C84.028862,623.638062 84.028862,621.659119 84.028862,620.649292 
	C85.940170,618.913208 87.398979,617.923035 88.421768,616.596619 
	C91.569038,612.515320 96.051704,613.584717 100.263397,612.851318 
	C107.233261,611.637695 111.588257,615.682190 116.077370,619.433472 
	C117.148232,620.328308 116.730865,623.110291 116.830078,625.033020 
	C116.939331,627.150269 116.855003,629.277466 116.855003,631.901367 
	C108.045914,631.901367 99.650108,631.901367 90.126808,631.901367 
	C92.059555,634.757874 93.406273,636.748230 95.042824,639.166992 
	C99.682961,639.166992 104.622597,639.166992 109.755707,639.166992 
	C109.755707,641.108887 109.755707,642.716797 109.755707,644.971069 
	C104.851006,644.971069 99.896225,644.656311 94.999680,645.055603 
	C89.611595,645.495056 89.466248,638.106323 84.028854,638.824280 
	C84.028854,634.515625 84.028854,630.548950 84.028854,626.099670 
M103.399994,626.028809 
	C105.534805,626.028809 107.669617,626.028809 111.468437,626.028809 
	C108.153267,622.896301 108.064034,618.910095 103.301788,618.915039 
	C94.444832,618.924133 92.872375,619.662598 91.483498,626.028809 
	C95.201668,626.028809 98.820763,626.028809 103.399994,626.028809 
z"/>
<path fill="#08A5E9" opacity="1.000000" stroke="none" 
	d="
M72.028854,634.982300 
	C72.028824,631.995300 72.047470,629.497803 72.024796,627.000793 
	C71.979538,622.017883 68.991699,618.984436 64.132416,618.972839 
	C60.650818,618.964539 57.169182,618.971191 53.167782,618.971191 
	C53.167782,627.578857 53.167782,635.972290 53.167782,644.662842 
	C50.745193,644.662842 48.836800,644.662842 46.616924,644.662842 
	C46.616924,629.936768 46.616924,615.213135 46.616924,600.266968 
	C48.729870,600.266968 50.633850,600.266968 52.876419,600.266968 
	C52.876419,604.436279 52.876419,608.383240 52.876419,613.028809 
	C56.954735,613.028809 60.711037,612.984924 64.465805,613.041931 
	C67.791992,613.092407 70.729248,612.816162 73.692986,615.947021 
	C76.963043,619.401428 79.364075,622.180237 78.824020,627.320923 
	C78.237968,632.899414 78.691132,638.587036 78.691132,644.595825 
	C76.498360,644.595825 74.597900,644.595825 72.028854,644.595825 
	C72.028854,641.680725 72.028854,638.576416 72.028854,634.982300 
z"/>
<path fill="#08A5E9" opacity="1.000000" stroke="none" 
	d="
M40.016060,751.028198 
	C40.016060,754.516785 39.541668,757.606323 40.112377,760.488953 
	C41.398495,766.984924 35.374054,768.848877 32.627125,772.704468 
	C32.174774,773.339355 29.009466,772.083252 27.113451,771.635498 
	C25.288509,771.204529 23.009216,769.739380 21.749531,770.369080 
	C15.181522,773.651978 15.785869,773.332947 10.823068,768.248047 
	C7.958957,765.313538 8.008451,762.587524 7.992397,759.356506 
	C7.962794,753.398865 7.983940,747.440918 7.983940,741.238831 
	C10.306623,741.238831 12.227069,741.238831 14.698081,741.238831 
	C14.698081,748.686340 14.698081,756.088684 14.698081,763.724609 
	C16.817759,763.724609 18.389479,763.724609 20.395237,763.724609 
	C20.395237,760.421448 20.395237,757.330444 20.395237,753.868896 
	C22.857445,753.868896 24.895739,753.868896 27.365824,753.868896 
	C27.365824,757.087524 27.365824,760.193726 27.365824,763.726318 
	C29.335875,763.826416 30.914907,763.906677 33.082745,764.016846 
	C33.082745,756.339478 33.082745,748.951782 33.082745,741.282471 
	C35.564850,741.282471 37.481041,741.282471 40.016060,741.282471 
	C40.016060,744.321838 40.016060,747.428467 40.016060,751.028198 
z"/>
<path fill="#08A5E9" opacity="1.000000" stroke="none" 
	d="
M359.154449,702.983887 
	C364.585022,702.983887 369.538940,702.983887 374.732239,702.983887 
	C374.732239,700.642029 374.732239,698.705566 374.732239,696.016113 
	C372.111359,696.016113 369.301147,695.640259 366.630981,696.091980 
	C360.504944,697.128540 357.472626,692.381470 353.695770,689.334045 
	C351.570435,687.619202 354.619476,682.084656 357.519470,680.026794 
	C366.256256,673.826904 375.932007,678.777222 385.396118,676.536377 
	C385.396118,678.958130 385.396118,680.670166 385.396118,682.833008 
	C378.175812,682.833008 370.933167,682.833008 363.357117,682.833008 
	C363.357117,685.316956 363.357117,687.364685 363.357117,690.016541 
	C371.467194,689.673035 380.106720,688.393066 385.655579,696.788025 
	C385.655579,698.589355 385.655579,700.390747 385.655579,702.010559 
	C383.539673,703.447632 380.565521,704.368774 379.853119,706.179688 
	C378.361115,709.972290 375.649719,708.964539 373.114410,708.992432 
	C366.667725,709.063538 360.219727,709.016113 353.451050,709.016113 
	C353.357056,706.975647 353.283325,705.375488 353.173157,702.983948 
	C355.178406,702.983948 356.928070,702.983948 359.154449,702.983887 
z"/>
<path fill="#08A5E9" opacity="1.000000" stroke="none" 
	d="
M149.320175,742.098022 
	C151.446320,741.396606 153.479874,741.104553 155.496658,740.814819 
	C156.151947,745.910767 151.631821,751.815979 146.207001,753.466736 
	C146.207001,755.698425 146.207001,757.990417 146.207001,760.277039 
	C151.186218,762.077148 156.046036,768.177185 155.802612,772.811218 
	C146.272461,774.393250 144.736526,763.478882 137.133774,761.865967 
	C137.133774,764.965271 137.133774,768.778015 137.133774,772.785400 
	C134.497574,772.785400 132.575287,772.785400 130.365921,772.785400 
	C130.365921,757.929993 130.365921,743.213013 130.365921,728.240234 
	C132.459976,728.240234 134.382401,728.240234 136.982452,728.240234 
	C136.982452,736.442322 136.982452,744.608704 136.982452,753.610046 
	C141.598969,749.424194 145.413284,745.965759 149.320175,742.098022 
z"/>
<path fill="#08A5E9" opacity="1.000000" stroke="none" 
	d="
M192.033600,766.996826 
	C187.730759,772.614197 182.296875,773.786743 175.846436,773.109619 
	C171.256790,772.627747 166.575790,773.016113 161.583313,773.016113 
	C161.583313,771.001343 161.583313,769.288574 161.583313,767.122192 
	C168.541565,767.122192 175.454453,767.122192 182.671677,767.122192 
	C182.671677,764.638245 182.671677,762.590454 182.671677,760.016113 
	C180.162720,760.016113 177.629608,759.606689 175.283417,760.095093 
	C168.951782,761.413025 165.624557,756.733215 161.754898,753.472168 
	C159.526672,751.594482 162.809906,746.275146 165.858185,743.967712 
	C174.467239,737.451172 184.041626,743.131226 193.490341,740.373108 
	C193.612411,742.865723 193.696381,744.580200 193.803345,746.764648 
	C186.256683,746.764648 179.011276,746.764648 171.393768,746.764648 
	C171.393768,749.253845 171.393768,751.302917 171.393768,753.983887 
	C173.028381,753.983887 174.797470,753.955933 176.565430,753.989075 
	C181.880890,754.088745 186.605362,753.505676 190.888565,759.192932 
	C193.343124,762.452087 194.539795,763.734192 192.033600,766.996826 
z"/>
<path fill="#08A5E9" opacity="1.000000" stroke="none" 
	d="
M130.510895,677.016968 
	C138.766006,676.991638 146.570724,676.991638 154.691833,676.991638 
	C154.691833,678.999756 154.691833,680.724487 154.691833,682.949280 
	C147.636658,682.949280 140.562134,682.949280 133.258270,682.949280 
	C133.258270,685.380310 133.258270,687.322388 133.258270,689.984497 
	C137.241211,689.984497 141.333832,689.934692 145.424637,689.999390 
	C149.063354,690.056885 155.527649,696.777283 154.889664,700.226135 
	C154.582352,701.887573 153.162323,703.519348 151.874039,704.786072 
	C149.280487,707.336243 146.819748,709.657288 142.352325,709.182434 
	C136.137680,708.521729 129.800201,709.016113 123.305061,709.016113 
	C123.305061,706.897278 123.305061,705.291138 123.305061,703.172668 
	C130.368286,703.172668 137.448944,703.172668 144.869171,703.172668 
	C144.869171,700.639160 144.869171,698.596313 144.869171,696.015686 
	C140.712067,696.015686 136.591415,696.037415 132.471161,696.006775 
	C130.298553,695.990662 123.634651,689.456909 123.009872,687.493652 
	C121.803215,683.701843 125.693291,682.981323 126.809486,680.613953 
	C127.465813,679.221863 128.949112,678.219727 130.510895,677.016968 
z"/>
<path fill="#08A5E9" opacity="1.000000" stroke="none" 
	d="
M193.735565,684.628784 
	C193.771194,687.399231 193.253250,689.878845 193.872574,692.031311 
	C196.070419,699.670044 190.741608,703.837830 186.637238,708.560364 
	C186.152771,709.117859 184.758331,708.979248 183.782669,708.997131 
	C180.954834,709.048828 177.983536,708.454651 175.324646,709.126892 
	C168.748627,710.789490 165.682571,705.792358 161.701767,702.540833 
	C161.141998,702.083679 161.258987,700.672607 161.241669,699.699890 
	C161.188293,696.705688 161.836990,693.547424 161.097733,690.747314 
	C159.378235,684.234619 165.074036,681.640381 167.488632,677.336792 
	C167.648666,677.051636 168.401291,677.048706 168.886124,677.008179 
	C169.547394,676.953003 170.220856,677.037964 170.881027,676.976440 
	C179.505035,676.171570 187.767700,676.491760 193.735565,684.628784 
M186.982986,689.795532 
	C185.777603,687.616943 184.572220,685.438293 183.375702,683.275696 
	C170.181152,682.289551 168.021011,683.589661 168.016083,692.500549 
	C168.010529,702.500977 169.860413,703.734802 184.690857,702.625793 
	C185.420792,698.831970 186.202316,694.769958 186.982986,689.795532 
z"/>
<path fill="#08A5E9" opacity="1.000000" stroke="none" 
	d="
M46.221573,755.082764 
	C44.150608,748.172058 50.030899,745.503418 52.647255,741.319641 
	C52.965313,740.810974 54.521725,741.007019 55.505447,740.997070 
	C58.835358,740.963440 62.259781,741.477051 65.473328,740.864563 
	C69.931313,740.014954 71.982407,743.151978 74.992615,745.108582 
	C80.480797,748.675720 78.092674,753.971008 78.864731,758.653198 
	C79.711372,763.787720 77.233940,766.741760 73.762436,769.984314 
	C67.402260,775.925110 59.969261,771.696533 53.171097,772.959961 
	C51.476139,769.076050 45.584637,768.062073 46.180141,762.549133 
	C46.429050,760.244812 46.221504,757.891235 46.221573,755.082764 
M69.918015,763.342529 
	C70.605095,762.466797 71.798988,761.642883 71.894714,760.706665 
	C72.408745,755.679749 72.418694,750.693665 67.873238,747.127136 
	C62.557636,746.881226 56.074913,745.510254 53.562782,751.516052 
	C51.487293,756.477966 52.123566,762.388977 57.519192,766.982849 
	C59.813339,766.982849 62.983051,767.259827 66.058266,766.841736 
	C67.230431,766.682312 68.185852,764.928711 69.918015,763.342529 
z"/>
<path fill="#08A5E9" opacity="1.000000" stroke="none" 
	d="
M24.956532,613.028809 
	C32.020786,610.817200 34.900349,616.981995 39.445602,619.343811 
	C39.963219,619.612793 39.927509,621.167236 39.948452,622.129944 
	C40.010021,624.959412 39.369511,627.954956 40.087616,630.590149 
	C41.990379,637.572571 36.247211,640.367981 33.019104,644.520264 
	C32.590839,645.071167 31.158194,644.933777 30.187487,644.952820 
	C27.524240,645.005188 24.710136,644.413574 22.223801,645.078796 
	C15.557192,646.862427 12.819948,641.003662 8.420822,638.448364 
	C7.911421,638.152405 8.061549,636.583923 8.044882,635.603149 
	C7.999617,632.939575 8.594348,630.121277 7.920376,627.640015 
	C6.070211,620.828491 11.074857,617.203674 14.824442,613.734253 
	C16.674595,612.022278 21.173780,613.173279 24.956532,613.028809 
M14.708463,633.146545 
	C16.817574,637.776550 20.171198,639.725586 25.441053,639.132202 
	C30.039026,638.614502 33.286446,635.949585 33.278500,631.285461 
	C33.272434,627.725769 33.972404,624.265076 30.557709,621.151123 
	C27.690714,618.536682 20.303082,618.527283 17.458954,621.102417 
	C13.697247,624.508362 15.005718,628.398560 14.708463,633.146545 
z"/>
<path fill="#08A5E9" opacity="1.000000" stroke="none" 
	d="
M507.080017,695.889160 
	C507.080017,694.577148 507.274719,693.688538 507.049591,692.923340 
	C505.031433,686.063660 509.626221,681.986755 513.506287,677.671509 
	C514.033447,677.085266 515.331360,677.047363 516.281433,677.014465 
	C518.772644,676.927917 521.412476,677.514160 523.735779,676.883850 
	C530.519287,675.043640 534.160950,679.946777 538.515564,683.297974 
	C539.074829,683.728333 538.975281,685.152832 538.994995,686.120544 
	C539.052490,688.946106 538.427673,691.930298 539.130981,694.569641 
	C540.941711,701.364685 535.555420,704.391541 532.381714,708.561951 
	C531.961609,709.113892 530.515625,708.973694 529.540955,708.997192 
	C527.214417,709.053345 524.740723,708.502563 522.584412,709.110901 
	C515.716309,711.048706 511.923706,706.093079 507.725281,702.548584 
	C506.584503,701.585449 507.245789,698.487793 507.080017,695.889160 
M529.420776,702.254944 
	C530.492249,699.775452 532.482666,697.274902 532.426208,694.821350 
	C532.334839,690.846863 530.899841,686.903320 530.047607,683.017395 
	C525.801086,683.017395 522.815674,682.925537 519.841736,683.070251 
	C518.878723,683.117126 517.686035,683.536926 517.043884,684.210754 
	C514.173584,687.222717 513.576233,690.903137 513.856873,694.989319 
	C514.189636,699.831787 517.066528,702.987549 521.818909,702.975281 
	C524.136902,702.969360 526.454712,702.873169 529.420776,702.254944 
z"/>
<path fill="#08A5E9" opacity="1.000000" stroke="none" 
	d="
M570.784668,687.588806 
	C569.372559,685.972107 568.109619,684.778625 566.344177,683.110229 
	C562.375366,683.110229 557.565674,683.110229 552.244751,683.110229 
	C552.244751,691.572754 552.244751,699.967712 552.244751,708.683960 
	C549.837097,708.683960 547.931335,708.683960 545.621094,708.683960 
	C545.621094,698.414856 545.621094,688.048340 545.621094,677.008484 
	C553.491333,677.008484 561.415222,676.876953 569.325378,677.148132 
	C570.531982,677.189514 571.631104,679.149231 572.855347,680.127319 
	C576.358032,682.925537 578.574707,685.923401 577.941223,691.026550 
	C577.232544,696.735657 577.778564,702.600525 577.778564,708.701721 
	C575.459167,708.701721 573.542603,708.701721 570.933899,708.701721 
	C570.933899,701.879211 570.933899,694.945679 570.784668,687.588806 
z"/>
<path fill="#08A5E9" opacity="1.000000" stroke="none" 
	d="
M167.971146,639.838745 
	C167.892578,641.768982 167.814041,643.219543 167.727936,644.809937 
	C165.628159,644.809937 163.838745,644.809937 161.678894,644.809937 
	C161.678894,634.353577 161.678894,623.995117 161.678894,613.037781 
	C169.491333,613.037781 177.249268,612.904236 184.992889,613.177063 
	C186.198120,613.219543 187.232544,615.277283 188.527649,616.125793 
	C192.618439,618.805786 194.376038,622.192322 193.826126,627.333130 
	C193.230362,632.902588 193.691132,638.585144 193.691132,644.728699 
	C191.504318,644.826050 189.603302,644.910706 187.028748,645.025330 
	C187.028748,638.879333 187.050766,632.951294 187.022018,627.023560 
	C186.997559,621.978821 184.056732,618.983032 179.173523,618.973999 
	C176.014679,618.968140 172.855759,618.984436 169.696976,619.005432 
	C169.373459,619.007568 169.050583,619.109924 167.971161,619.296387 
	C167.971161,625.881714 167.971161,632.620422 167.971146,639.838745 
z"/>
<path fill="#08A5E9" opacity="1.000000" stroke="none" 
	d="
M225.221603,703.805847 
	C225.221573,701.499817 225.409439,699.647705 225.185349,697.846802 
	C224.574265,692.935791 223.789230,688.046570 223.087997,683.250549 
	C216.823196,683.250549 212.058426,683.250549 206.899902,683.250549 
	C206.899902,691.720215 206.899902,699.965332 206.899902,708.609497 
	C204.502090,708.609497 202.487030,708.609497 200.220825,708.609497 
	C200.220825,698.211487 200.220825,687.830566 200.220825,676.989441 
	C208.050385,676.989441 215.785233,676.168945 223.194275,677.365662 
	C226.473022,677.895203 230.914932,682.112915 231.619980,685.354309 
	C232.966690,691.545593 232.014191,698.237061 232.015900,704.720886 
	C232.016251,706.009216 232.015961,707.297485 232.015961,708.797913 
	C229.635498,708.797913 227.718231,708.797913 225.472412,708.797913 
	C225.382980,707.188416 225.302261,705.735718 225.221603,703.805847 
z"/>
<path fill="#08A5E9" opacity="1.000000" stroke="none" 
	d="
M296.778442,687.996338 
	C296.778381,693.127441 296.778381,697.759216 296.778381,702.680115 
	C298.876984,702.867126 300.636353,703.023926 302.699524,703.207764 
	C302.699524,704.990295 302.699524,706.723328 302.699524,708.738464 
	C296.300720,708.738464 289.897308,708.738464 283.239655,708.738464 
	C283.239655,706.886414 283.239655,705.161316 283.239655,703.161621 
	C285.372375,703.053406 287.327881,702.954163 289.681915,702.834717 
	C289.681915,692.143921 289.681915,681.432983 289.681915,670.305481 
	C287.787903,670.152527 285.713593,669.984985 283.314911,669.791260 
	C283.314911,668.036072 283.314911,666.304382 283.314911,664.275757 
	C287.525665,664.275757 291.787994,664.275757 296.778473,664.275757 
	C296.778473,671.979797 296.778473,679.738403 296.778442,687.996338 
z"/>
<path fill="#08A5E9" opacity="1.000000" stroke="none" 
	d="
M135.104919,606.060791 
	C133.329651,605.937561 132.025238,605.876709 130.395142,605.800659 
	C130.295258,604.003601 130.206375,602.404297 130.095566,600.410522 
	C134.360550,600.410522 138.401474,600.410522 142.959442,600.410522 
	C142.959442,613.170654 142.959442,625.903870 142.959442,638.826355 
	C145.375046,638.979126 147.301895,639.101013 149.440216,639.236206 
	C149.440216,641.123230 149.440216,642.718384 149.440216,644.643188 
	C143.125839,644.643188 136.900269,644.643188 130.411148,644.643188 
	C130.411148,642.932800 130.411148,641.336914 130.411148,639.426086 
	C132.256088,639.193909 134.164597,638.953796 137.057648,638.589783 
	C136.560913,627.706604 136.068344,616.914856 135.104919,606.060791 
z"/>
<path fill="#08A5E9" opacity="1.000000" stroke="none" 
	d="
M456.915894,679.998169 
	C456.641022,685.453979 452.200317,681.557861 450.020508,684.035461 
	C450.020508,687.902588 449.531555,692.438721 450.225677,696.785950 
	C450.575531,698.977112 453.105377,700.800598 454.584625,702.837402 
	C455.715790,704.394958 456.745056,706.026489 457.806000,707.604736 
	C452.037659,711.170410 450.035156,706.718994 447.027283,704.757690 
	C443.691559,702.582458 443.863159,699.441406 443.956116,696.125854 
	C444.072205,691.984375 443.983948,687.837097 443.983948,683.352234 
	C441.845856,683.155334 439.930023,682.978943 437.620117,682.766235 
	C437.620117,681.096008 437.620117,679.386963 437.620117,677.286621 
	C439.458588,677.132751 441.390503,676.971069 443.814789,676.768127 
	C443.814789,672.746216 443.814789,668.667236 443.814789,664.291992 
	C446.024323,664.291992 447.749207,664.291992 449.973511,664.291992 
	C449.973511,668.390625 449.973511,672.476257 449.973511,675.913696 
	C452.198090,678.440979 456.636322,674.549011 456.915894,679.998169 
z"/>
<path fill="#08A5E9" opacity="1.000000" stroke="none" 
	d="
M111.953033,676.983887 
	C113.867470,677.066711 115.314285,677.149414 116.863098,677.237976 
	C116.863098,679.195496 116.863098,680.812012 116.863098,682.352905 
	C116.444855,682.600342 116.151108,682.929382 115.898026,682.900696 
	C111.842682,682.439636 108.569321,683.429260 105.775208,686.781494 
	C104.184395,688.690063 101.506973,689.692871 98.207092,691.820312 
	C98.207092,696.186890 98.207092,702.270386 98.207092,708.679077 
	C95.855774,708.679077 93.960869,708.679077 91.777138,708.679077 
	C91.777138,698.273987 91.777138,687.861511 91.777138,677.216553 
	C93.723152,677.216553 95.503044,677.216553 97.637085,677.216553 
	C97.856880,679.008667 98.089439,680.904785 98.426987,683.656982 
	C102.802582,680.799988 105.446289,675.088074 111.953033,676.983887 
z"/>
<path fill="#08A5E9" opacity="1.000000" stroke="none" 
	d="
M117.004196,744.904053 
	C114.251976,746.189087 111.508339,747.015747 108.196213,748.013672 
	C106.441208,751.378784 104.068352,755.191223 97.986565,753.763916 
	C97.986565,760.467651 97.986565,766.559082 97.986565,772.822632 
	C95.747292,772.822632 93.969673,772.822632 91.841919,772.822632 
	C91.841919,762.348206 91.841919,751.958496 91.841919,741.275208 
	C93.775696,741.275208 95.667389,741.275208 97.851692,741.275208 
	C97.972054,743.151306 98.085579,744.920898 98.260170,747.642273 
	C100.536690,745.963684 102.367577,744.842407 103.916031,743.414856 
	C105.923355,741.564209 114.345322,739.787598 116.235237,741.307800 
	C116.903450,741.845276 116.776619,743.371155 117.004196,744.904053 
z"/>
<path fill="#08A5E9" opacity="1.000000" stroke="none" 
	d="
M478.231995,709.015015 
	C473.031128,709.124207 475.712463,705.622620 474.787659,703.324829 
	C477.207550,703.124146 479.289642,702.951416 481.727783,702.749207 
	C481.727783,696.392517 481.727783,690.005615 481.727783,683.259216 
	C479.680389,683.114502 477.602173,682.967651 475.262451,682.802307 
	C475.262451,680.938293 475.262451,679.212280 475.262451,677.230286 
	C479.634705,677.230286 483.890350,677.230286 488.709991,677.230286 
	C488.709991,685.729248 488.709991,694.124573 488.709991,702.783691 
	C491.009949,702.920105 492.772461,703.024658 494.760132,703.142578 
	C494.760132,705.107910 494.760132,706.836243 494.760132,709.015869 
	C489.287872,709.015869 483.997742,709.015869 478.231995,709.015015 
z"/>
<path fill="#08A5E9" opacity="1.000000" stroke="none" 
	d="
M339.578186,709.002319 
	C333.661255,709.013062 328.199738,709.013062 322.413788,709.013062 
	C322.413788,706.978516 322.413788,705.265686 322.413788,703.215637 
	C324.052216,703.083191 325.664154,702.952881 327.631653,702.793884 
	C327.631653,696.448975 327.631653,690.064758 327.631653,683.267090 
	C326.027679,683.115479 324.297791,682.951965 322.340332,682.766968 
	C322.340332,680.981262 322.340332,679.373352 322.340332,677.371338 
	C326.289154,677.371338 330.334198,677.371338 334.875610,677.371338 
	C334.875610,685.651917 334.875610,694.038574 334.875610,702.758423 
	C337.253326,702.903687 339.173859,703.021057 342.355865,703.215454 
	C341.466675,705.427063 340.750122,707.209351 339.578186,709.002319 
z"/>
<path fill="#08A5E9" opacity="1.000000" stroke="none" 
	d="
M331.046570,670.014404 
	C329.428711,668.474792 328.264435,666.935974 326.279205,664.312195 
	C330.253540,664.312195 332.300476,664.312195 334.745514,664.312195 
	C334.613525,666.763306 337.047852,670.369690 331.046570,670.014404 
z"/>
<path fill="#08A5E9" opacity="1.000000" stroke="none" 
	d="
M482.533142,664.481873 
	C484.625793,664.170288 486.408142,664.170288 488.480591,664.170288 
	C488.480591,666.087524 488.480591,667.800598 488.480591,669.765320 
	C486.389679,669.765320 484.493439,669.765320 482.222870,669.765320 
	C482.222870,667.990417 482.222870,666.391968 482.533142,664.481873 
z"/>
<path fill="#FFFFFF" opacity="1.000000" stroke="none" 
	d="
M14.798764,685.183594 
	C17.296679,684.139160 19.767599,683.200012 22.265995,683.120178 
	C24.872910,683.036804 28.213200,682.906860 29.985752,684.339905 
	C34.088795,687.657043 33.818157,692.851685 33.012672,697.547119 
	C32.698563,699.378235 30.621536,700.906982 29.228636,702.728882 
	C24.760742,702.728882 20.000595,702.728882 14.783844,702.728882 
	C14.783844,696.878357 14.783844,691.272461 14.798764,685.183594 
z"/>
<path fill="#FFFFFF" opacity="1.000000" stroke="none" 
	d="
M62.958595,683.016113 
	C65.064758,683.016113 66.707123,683.016113 67.972725,683.016113 
	C69.575630,685.363708 70.893715,687.294189 72.599014,689.791809 
	C65.571892,689.791809 59.498093,689.791809 52.430878,689.791809 
	C54.120121,687.329224 55.427570,685.423279 57.078796,683.016113 
	C58.556549,683.016113 60.525673,683.016113 62.958595,683.016113 
z"/>
<path fill="#FFFFFF" opacity="1.000000" stroke="none" 
	d="
M250.456726,696.031372 
	C255.019714,696.019287 259.130768,696.019287 263.611694,696.019287 
	C263.611694,698.249329 263.611694,700.286987 263.611694,702.657715 
	C258.902069,702.657715 254.026291,702.657715 247.871017,702.657715 
	C248.629486,700.306641 249.317139,698.175049 250.456726,696.031372 
z"/>
<path fill="#FFFFFF" opacity="1.000000" stroke="none" 
	d="
M404.253906,696.024658 
	C408.693390,696.018005 412.658539,696.018005 416.916138,696.018005 
	C416.916138,698.431458 416.916138,700.470947 416.916138,702.750305 
	C411.983215,702.750305 407.232513,702.750305 401.169952,702.750305 
	C402.169952,700.175659 402.974762,698.103455 404.253906,696.024658 
z"/>
<path fill="#FFFFFF" opacity="1.000000" stroke="none" 
	d="
M211.268768,638.961060 
	C210.406311,636.787415 210.014923,634.663879 209.564377,632.219360 
	C215.055588,632.219360 219.797760,632.219360 224.924515,632.219360 
	C224.924515,634.308472 224.924515,636.352051 224.924515,639.011108 
	C220.590240,639.011108 216.165054,639.011108 211.268768,638.961060 
z"/>
<path fill="#FFFFFF" opacity="1.000000" stroke="none" 
	d="
M102.919930,626.028809 
	C98.820763,626.028809 95.201668,626.028809 91.483498,626.028809 
	C92.872375,619.662598 94.444832,618.924133 103.301788,618.915039 
	C108.064034,618.910095 108.153267,622.896301 111.468437,626.028809 
	C107.669617,626.028809 105.534805,626.028809 102.919930,626.028809 
z"/>
<path fill="#FFFFFF" opacity="1.000000" stroke="none" 
	d="
M186.983414,690.251709 
	C186.202316,694.769958 185.420792,698.831970 184.690857,702.625793 
	C169.860413,703.734802 168.010529,702.500977 168.016083,692.500549 
	C168.021011,683.589661 170.181152,682.289551 183.375702,683.275696 
	C184.572220,685.438293 185.777603,687.616943 186.983414,690.251709 
z"/>
<path fill="#FFFFFF" opacity="1.000000" stroke="none" 
	d="
M69.579033,763.622070 
	C68.185852,764.928711 67.230431,766.682312 66.058266,766.841736 
	C62.983051,767.259827 59.813339,766.982849 57.519192,766.982849 
	C52.123566,762.388977 51.487293,756.477966 53.562782,751.516052 
	C56.074913,745.510254 62.557636,746.881226 67.873238,747.127136 
	C72.418694,750.693665 72.408745,755.679749 71.894714,760.706665 
	C71.798988,761.642883 70.605095,762.466797 69.579033,763.622070 
z"/>
<path fill="#FFFFFF" opacity="1.000000" stroke="none" 
	d="
M14.700960,632.687622 
	C15.005718,628.398560 13.697247,624.508362 17.458954,621.102417 
	C20.303082,618.527283 27.690714,618.536682 30.557709,621.151123 
	C33.972404,624.265076 33.272434,627.725769 33.278500,631.285461 
	C33.286446,635.949585 30.039026,638.614502 25.441053,639.132202 
	C20.171198,639.725586 16.817574,637.776550 14.700960,632.687622 
z"/>
<path fill="#FFFFFF" opacity="1.000000" stroke="none" 
	d="
M529.096680,702.536377 
	C526.454712,702.873169 524.136902,702.969360 521.818909,702.975281 
	C517.066528,702.987549 514.189636,699.831787 513.856873,694.989319 
	C513.576233,690.903137 514.173584,687.222717 517.043884,684.210754 
	C517.686035,683.536926 518.878723,683.117126 519.841736,683.070251 
	C522.815674,682.925537 525.801086,683.017395 530.047607,683.017395 
	C530.899841,686.903320 532.334839,690.846863 532.426208,694.821350 
	C532.482666,697.274902 530.492249,699.775452 529.096680,702.536377 
z"/>
</svg>